<?xml version="1.0" encoding="iso-8859-1"?>
<!-- Generator: Adobe Illustrator 16.0.0, SVG Export Plug-In . SVG Version: 6.00 Build 0)  -->
<!DOCTYPE svg PUBLIC "-//W3C//DTD SVG 1.1//EN" "http://www.w3.org/Graphics/SVG/1.1/DTD/svg11.dtd">
<svg version="1.1" id="Capa_1" xmlns="http://www.w3.org/2000/svg" xmlns:xlink="http://www.w3.org/1999/xlink" x="0px" y="0px"
	 width="101.85px" height="101.85px" viewBox="0 0 101.85 101.85" style="enable-background:new 0 0 101.85 101.85;"
	 xml:space="preserve">
<g>
	<g>
		<path fill="#fff" d="M71.534,16.607c0,0-18.458,0.476-25.439,10.029c-6.979,9.553-11.252,8.663-11.252,8.663l4.62,5.999L71.534,16.607z"/>
		<path fill="#fff" d="M93.26,44.827c3.512-11.798,5.021-24.953-4.723-33.245c-8.401-7.152-11.402,2.081-12.717,10.59l-2.553-3.318
			L41.199,43.548l10.212,13.268l-28.687-3.897c-1.009-3.311-3.641-5.95-7.053-6.865c-0.38-0.191-0.782-0.325-1.209-0.368
			c-0.228-0.021-0.458,0.033-0.679,0.06c-0.04-0.004-0.07-0.021-0.106-0.021v0.023c-2.803,0.421-5.326,4.444-5.852,9.582
			c-0.258,2.557-0.027,5.038,0.662,6.975c0.812,2.293,2.193,3.648,3.879,3.819c0.498,0.051,0.993-0.014,1.48-0.175
			c3.917-0.314,7.229-2.851,8.617-6.437l34.646,4.708l12.672,16.458l32.069-24.694L93.26,44.827z M12.559,63.256
			c-0.487-0.133-1.023-0.849-1.395-1.902c-0.544-1.529-0.729-3.617-0.512-5.739c0.358-3.515,1.64-5.947,2.74-6.796
			c0.032-0.024,0.063-0.031,0.089-0.056L12.559,63.256z M91.255,42.217L78.258,25.335c0.185-1.749,0.383-3.497,0.663-5.241
			c0.404-2.458,1.014-4.956,2.327-7.098c2.793-4.542,8.207,3.936,9.312,5.905C94.475,25.904,93.535,34.237,91.255,42.217z"/>
		<path fill="#fff" d="M0,85.699c0,1.021,0.826,1.849,1.846,1.849c1.02,0,1.844-0.828,1.844-1.849c0-1.02-1.844-3.128-1.844-3.128
			S0,84.679,0,85.699z"/>
		<path fill="#fff" d="M12.528,89.518c0,1.828,1.479,3.31,3.311,3.31c1.826,0,3.311-1.481,3.311-3.31c0-1.831-3.311-5.608-3.311-5.608
			S12.528,87.687,12.528,89.518z"/>
		<path fill="#fff" d="M9.864,69.738c0,0-3.123,3.566-3.123,5.288c0,1.721,1.395,3.124,3.123,3.124s3.123-1.399,3.123-3.124
			C12.987,73.297,9.864,69.738,9.864,69.738z"/>
	</g>
</g>
<g>
</g>
<g>
</g>
<g>
</g>
<g>
</g>
<g>
</g>
<g>
</g>
<g>
</g>
<g>
</g>
<g>
</g>
<g>
</g>
<g>
</g>
<g>
</g>
<g>
</g>
<g>
</g>
<g>
</g>
</svg>
